%FSLAX42Y42*%
%MOMM*%
G71*
G01*
G75*
G04 Layer_Color=32768*
%ADD10C,3.00*%
%ADD11C,2.54*%
%ADD12C,1.85*%
%ADD13C,2.00*%
%ADD14C,4.60*%
%ADD15C,2.50*%
%ADD16R,2.50X2.50*%
%ADD17C,3.80*%
%ADD18R,3.00X3.00*%
%ADD19C,1.85*%
%ADD20C,1.75*%
%ADD21R,1.75X1.75*%
%ADD22C,5.00*%
G04:AMPARAMS|DCode=23|XSize=1.3mm|YSize=3mm|CornerRadius=0mm|HoleSize=0mm|Usage=FLASHONLY|Rotation=180.000|XOffset=0mm|YOffset=0mm|HoleType=Round|Shape=Octagon|*
%AMOCTAGOND23*
4,1,8,0.33,-1.50,-0.33,-1.50,-0.65,-1.18,-0.65,1.18,-0.33,1.50,0.33,1.50,0.65,1.18,0.65,-1.18,0.33,-1.50,0.0*
%
%ADD23OCTAGOND23*%

%ADD24C,0.75*%
%ADD25C,0.25*%
%ADD26C,0.15*%
D25*
X-425Y5800D02*
X-375D01*
X-425Y0D02*
X-375D01*
X-400Y5800D02*
X-349Y5648D01*
X-451D02*
X-400Y5800D01*
Y0D02*
X-349Y152D01*
X-451D02*
X-400Y0D01*
Y3410D02*
Y5800D01*
Y0D02*
Y2390D01*
X9000Y6175D02*
Y6225D01*
X0Y6175D02*
Y6225D01*
X8848Y6149D02*
X9000Y6200D01*
X8848Y6251D02*
X9000Y6200D01*
X0D02*
X152Y6149D01*
X0Y6200D02*
X152Y6251D01*
X5010Y6200D02*
X9000D01*
X0D02*
X3990D01*
X10000Y5975D02*
Y6025D01*
X0Y5975D02*
Y6025D01*
X9848Y5949D02*
X10000Y6000D01*
X9848Y6051D02*
X10000Y6000D01*
X0D02*
X152Y5949D01*
X0Y6000D02*
X152Y6051D01*
X5574Y6000D02*
X10000D01*
X0D02*
X4426D01*
D26*
X-461Y2517D02*
Y2415D01*
X-385D01*
X-410Y2466D01*
Y2491D01*
X-385Y2517D01*
X-334D01*
X-309Y2491D01*
Y2440D01*
X-334Y2415D01*
X-436Y2567D02*
X-461Y2593D01*
Y2644D01*
X-436Y2669D01*
X-410D01*
X-385Y2644D01*
X-359Y2669D01*
X-334D01*
X-309Y2644D01*
Y2593D01*
X-334Y2567D01*
X-359D01*
X-385Y2593D01*
X-410Y2567D01*
X-436D01*
X-385Y2593D02*
Y2644D01*
X-309Y2923D02*
X-359Y2872D01*
X-410D01*
X-461Y2923D01*
X-309Y2999D02*
X-410D01*
Y3024D01*
X-385Y3050D01*
X-309D01*
X-385D01*
X-410Y3075D01*
X-385Y3101D01*
X-309D01*
Y3151D02*
X-410D01*
Y3177D01*
X-385Y3202D01*
X-309D01*
X-385D01*
X-410Y3228D01*
X-385Y3253D01*
X-309D01*
Y3304D02*
X-359Y3355D01*
X-410D01*
X-461Y3304D01*
X4015Y6134D02*
X4040Y6109D01*
X4091D01*
X4117Y6134D01*
Y6236D01*
X4091Y6261D01*
X4040D01*
X4015Y6236D01*
Y6210D01*
X4040Y6185D01*
X4117D01*
X4167Y6236D02*
X4193Y6261D01*
X4244D01*
X4269Y6236D01*
Y6134D01*
X4244Y6109D01*
X4193D01*
X4167Y6134D01*
Y6236D01*
X4523Y6109D02*
X4472Y6159D01*
Y6210D01*
X4523Y6261D01*
X4599Y6109D02*
Y6210D01*
X4624D01*
X4650Y6185D01*
Y6109D01*
Y6185D01*
X4675Y6210D01*
X4701Y6185D01*
Y6109D01*
X4751D02*
Y6210D01*
X4777D01*
X4802Y6185D01*
Y6109D01*
Y6185D01*
X4828Y6210D01*
X4853Y6185D01*
Y6109D01*
X4904D02*
X4955Y6159D01*
Y6210D01*
X4904Y6261D01*
X4452Y5909D02*
X4502D01*
X4477D01*
Y6061D01*
X4452Y6036D01*
X4578D02*
X4604Y6061D01*
X4655D01*
X4680Y6036D01*
Y5934D01*
X4655Y5909D01*
X4604D01*
X4578Y5934D01*
Y6036D01*
X4731D02*
X4756Y6061D01*
X4807D01*
X4832Y6036D01*
Y5934D01*
X4807Y5909D01*
X4756D01*
X4731Y5934D01*
Y6036D01*
X5086Y5909D02*
X5036Y5959D01*
Y6010D01*
X5086Y6061D01*
X5163Y5909D02*
Y6010D01*
X5188D01*
X5213Y5985D01*
Y5909D01*
Y5985D01*
X5239Y6010D01*
X5264Y5985D01*
Y5909D01*
X5315D02*
Y6010D01*
X5340D01*
X5366Y5985D01*
Y5909D01*
Y5985D01*
X5391Y6010D01*
X5416Y5985D01*
Y5909D01*
X5467D02*
X5518Y5959D01*
Y6010D01*
X5467Y6061D01*
M02*
