%FSLAX42Y42*%
%MOMM*%
G71*
G01*
G75*
G04 Layer_Color=2752767*
%ADD10C,3.00*%
%ADD11C,2.54*%
%ADD12C,1.85*%
%ADD13C,2.00*%
%ADD14C,4.60*%
%ADD15C,2.50*%
%ADD16R,2.50X2.50*%
%ADD17C,3.80*%
%ADD18R,3.00X3.00*%
%ADD19C,1.85*%
%ADD20C,1.75*%
%ADD21R,1.75X1.75*%
%ADD22C,5.00*%
G04:AMPARAMS|DCode=23|XSize=1.3mm|YSize=3mm|CornerRadius=0mm|HoleSize=0mm|Usage=FLASHONLY|Rotation=180.000|XOffset=0mm|YOffset=0mm|HoleType=Round|Shape=Octagon|*
%AMOCTAGOND23*
4,1,8,0.33,-1.50,-0.33,-1.50,-0.65,-1.18,-0.65,1.18,-0.33,1.50,0.33,1.50,0.65,1.18,0.65,-1.18,0.33,-1.50,0.0*
%
%ADD23OCTAGOND23*%

%ADD24C,0.75*%
%ADD25C,0.25*%
%ADD26C,0.15*%
%ADD27C,0.13*%
%ADD28C,0.17*%
%ADD29C,0.10*%
D27*
X8849Y749D02*
Y851D01*
X8951D01*
Y749D01*
X8849D01*
Y4949D02*
Y5051D01*
X8951D01*
Y4949D01*
X8849D01*
X349D02*
Y5051D01*
X451D01*
Y4949D01*
X349D01*
Y749D02*
Y851D01*
X451D01*
Y749D01*
X349D01*
X8308Y3149D02*
X8257Y3251D01*
X8359D01*
X8308Y3149D01*
X7292D02*
X7241Y3251D01*
X7343D01*
X7292Y3149D01*
X5992Y3449D02*
X6017Y3475D01*
X6043D01*
X6017Y3500D01*
X6043Y3525D01*
X6017D01*
X5992Y3551D01*
X5967Y3525D01*
X5941D01*
X5967Y3500D01*
X5941Y3475D01*
X5967D01*
X5992Y3449D01*
X6500D02*
X6525Y3475D01*
X6551D01*
X6525Y3500D01*
X6551Y3525D01*
X6525D01*
X6500Y3551D01*
X6475Y3525D01*
X6449D01*
X6475Y3500D01*
X6449Y3475D01*
X6475D01*
X6500Y3449D01*
X499Y2849D02*
X525Y2900D01*
X499Y2951D01*
X550Y2925D01*
X601Y2951D01*
X575Y2900D01*
X601Y2849D01*
X550Y2875D01*
X499Y2849D01*
X1129Y2849D02*
X1155Y2900D01*
X1129Y2951D01*
X1180Y2925D01*
X1231Y2951D01*
X1205Y2900D01*
X1231Y2849D01*
X1180Y2875D01*
X1129Y2849D01*
X829Y2349D02*
X855Y2400D01*
X829Y2451D01*
X880Y2425D01*
X931Y2451D01*
X905Y2400D01*
X931Y2349D01*
X880Y2375D01*
X829Y2349D01*
X7292Y2449D02*
X7241Y2551D01*
X7343D01*
X7292Y2449D01*
X8308D02*
X8257Y2551D01*
X8359D01*
X8308Y2449D01*
X4854Y4249D02*
X4803Y4351D01*
X4905D01*
X4854Y4249D01*
X4346D02*
X4295Y4351D01*
X4397D01*
X4346Y4249D01*
X5975Y4576D02*
Y4550D01*
X6025D01*
Y4576D01*
X6051D01*
Y4626D01*
X6025D01*
Y4652D01*
X5975D01*
Y4626D01*
X5949D01*
Y4576D01*
X5975D01*
X5725Y4576D02*
Y4550D01*
X5775D01*
Y4576D01*
X5801D01*
Y4626D01*
X5775D01*
Y4652D01*
X5725D01*
Y4626D01*
X5699D01*
Y4576D01*
X5725D01*
X6175Y4576D02*
Y4550D01*
X6225D01*
Y4576D01*
X6251D01*
Y4626D01*
X6225D01*
Y4652D01*
X6175D01*
Y4626D01*
X6149D01*
Y4576D01*
X6175D01*
X6425D02*
Y4550D01*
X6475D01*
Y4576D01*
X6501D01*
Y4626D01*
X6475D01*
Y4652D01*
X6425D01*
Y4626D01*
X6399D01*
Y4576D01*
X6425D01*
X6706Y4821D02*
X6732D01*
X6757Y4847D01*
X6782Y4821D01*
X6808D01*
Y4847D01*
X6782Y4872D01*
X6808Y4897D01*
Y4923D01*
X6782D01*
X6757Y4897D01*
X6732Y4923D01*
X6706D01*
Y4897D01*
X6732Y4872D01*
X6706Y4847D01*
Y4821D01*
X5392D02*
X5418D01*
X5443Y4847D01*
X5468Y4821D01*
X5494D01*
Y4847D01*
X5468Y4872D01*
X5494Y4897D01*
Y4923D01*
X5468D01*
X5443Y4897D01*
X5418Y4923D01*
X5392D01*
Y4897D01*
X5418Y4872D01*
X5392Y4847D01*
Y4821D01*
X3000Y2095D02*
X2949Y2197D01*
X3051D01*
X3000Y2095D01*
Y2603D02*
X2949Y2705D01*
X3051D01*
X3000Y2603D01*
X4449Y841D02*
X4500Y892D01*
X4551Y841D01*
X4500Y790D01*
X4449Y841D01*
Y3000D02*
X4500Y3051D01*
X4551Y3000D01*
X4500Y2949D01*
X4449Y3000D01*
X3130Y4149D02*
Y4251D01*
X3232D01*
Y4149D01*
X3130D01*
X3151Y4170D02*
Y4230D01*
X3211D01*
Y4170D01*
X3151D01*
X2368Y4149D02*
Y4251D01*
X2470D01*
Y4149D01*
X2368D01*
X2389Y4170D02*
Y4230D01*
X2449D01*
Y4170D01*
X2389D01*
X5844Y499D02*
X5794Y601D01*
X5895D01*
X5844Y499D01*
Y520D02*
X5814Y580D01*
X5875D01*
X5844Y520D01*
X5489Y2149D02*
X5514Y2175D01*
X5540D01*
X5514Y2200D01*
X5540Y2225D01*
X5514D01*
X5489Y2251D01*
X5463Y2225D01*
X5438D01*
X5463Y2200D01*
X5438Y2175D01*
X5463D01*
X5489Y2149D01*
Y2170D02*
X5504Y2185D01*
X5519D01*
X5504Y2200D01*
X5519Y2215D01*
X5504D01*
X5489Y2230D01*
X5474Y2215D01*
X5458D01*
X5474Y2200D01*
X5458Y2185D01*
X5474D01*
X5489Y2170D01*
X5667Y2149D02*
X5692Y2175D01*
X5717D01*
X5692Y2200D01*
X5717Y2225D01*
X5692D01*
X5667Y2251D01*
X5641Y2225D01*
X5616D01*
X5641Y2200D01*
X5616Y2175D01*
X5641D01*
X5667Y2149D01*
Y2170D02*
X5682Y2185D01*
X5697D01*
X5682Y2200D01*
X5697Y2215D01*
X5682D01*
X5667Y2230D01*
X5651Y2215D01*
X5636D01*
X5651Y2200D01*
X5636Y2185D01*
X5651D01*
X5667Y2170D01*
X5844Y2149D02*
X5870Y2175D01*
X5895D01*
X5870Y2200D01*
X5895Y2225D01*
X5870D01*
X5844Y2251D01*
X5819Y2225D01*
X5794D01*
X5819Y2200D01*
X5794Y2175D01*
X5819D01*
X5844Y2149D01*
Y2170D02*
X5860Y2185D01*
X5875D01*
X5860Y2200D01*
X5875Y2215D01*
X5860D01*
X5844Y2230D01*
X5829Y2215D01*
X5814D01*
X5829Y2200D01*
X5814Y2185D01*
X5829D01*
X5844Y2170D01*
X6022Y2149D02*
X6048Y2175D01*
X6073D01*
X6048Y2200D01*
X6073Y2225D01*
X6048D01*
X6022Y2251D01*
X5997Y2225D01*
X5971D01*
X5997Y2200D01*
X5971Y2175D01*
X5997D01*
X6022Y2149D01*
Y2170D02*
X6037Y2185D01*
X6053D01*
X6037Y2200D01*
X6053Y2215D01*
X6037D01*
X6022Y2230D01*
X6007Y2215D01*
X5992D01*
X6007Y2200D01*
X5992Y2185D01*
X6007D01*
X6022Y2170D01*
X6200Y2149D02*
X6225Y2175D01*
X6251D01*
X6225Y2200D01*
X6251Y2225D01*
X6225D01*
X6200Y2251D01*
X6175Y2225D01*
X6149D01*
X6175Y2200D01*
X6149Y2175D01*
X6175D01*
X6200Y2149D01*
Y2170D02*
X6215Y2185D01*
X6230D01*
X6215Y2200D01*
X6230Y2215D01*
X6215D01*
X6200Y2230D01*
X6185Y2215D01*
X6170D01*
X6185Y2200D01*
X6170Y2185D01*
X6185D01*
X6200Y2170D01*
D28*
X9351Y1200D02*
G03*
X9351Y1200I-51J0D01*
G01*
Y4600D02*
G03*
X9351Y4600I-51J0D01*
G01*
X8924Y1600D02*
G03*
X8924Y1600I-51J0D01*
G01*
X9178D02*
G03*
X9178Y1600I-51J0D01*
G01*
X9351Y3500D02*
G03*
X9351Y3500I-51J0D01*
G01*
Y2500D02*
G03*
X9351Y2500I-51J0D01*
G01*
X8924Y4200D02*
G03*
X8924Y4200I-51J0D01*
G01*
X9178D02*
G03*
X9178Y4200I-51J0D01*
G01*
D29*
X8903Y1600D02*
G03*
X8903Y1600I-30J0D01*
G01*
X9157D02*
G03*
X9157Y1600I-30J0D01*
G01*
X8903Y4200D02*
G03*
X8903Y4200I-30J0D01*
G01*
X9157D02*
G03*
X9157Y4200I-30J0D01*
G01*
M02*
