M48
;Layer_Color=9474304
;FILE_FORMAT=4:2
METRIC,TZ
;TYPE=PLATED
T1F00S00C0.75
T2F00S00C0.85
T3F00S00C0.92
T4F00S00C1.05
T5F00S00C1.25
T6F00S00C1.50
T7F00S00C1.55
T8F00S00C2.30
T9F00S00C2.55
T10F00S00C3.25
%
T01
X8873Y1600
X9127
Y4200
X8873
X6500Y3500
X5992
T02
X4854Y4300
X7292Y3200
Y2500
X8308
Y3200
X4346Y4300
X3181Y4200
X2419
X3000Y2654
Y2146
T03
X5750Y4601
X6000Y4601
X6200
X6450
T04
X5489Y2200
X5667
X5844
X6022
X6200
T05
X9300Y1200
Y2500
Y3500
Y4600
T06
X8900Y800
X400
Y5000
X8900
T07
X4500Y841
Y3000
T08
X5443Y4872
X6757
T09
X880Y2400
X1180Y2900
X550Y2900
T10
X5844Y550
M30
