%FSLAX42Y42*%
%MOMM*%
G71*
G01*
G75*
G04 Layer_Physical_Order=1*
G04 Layer_Color=255*
%ADD10C,3.00*%
%ADD11C,2.54*%
%ADD12C,1.85*%
%ADD13C,2.00*%
%ADD14C,4.60*%
%ADD15C,2.50*%
%ADD16R,2.50X2.50*%
%ADD17C,3.80*%
%ADD18R,3.00X3.00*%
%ADD19C,1.85*%
%ADD20C,1.75*%
%ADD21R,1.75X1.75*%
%ADD22C,5.00*%
G04:AMPARAMS|DCode=23|XSize=1.3mm|YSize=3mm|CornerRadius=0mm|HoleSize=0mm|Usage=FLASHONLY|Rotation=180.000|XOffset=0mm|YOffset=0mm|HoleType=Round|Shape=Octagon|*
%AMOCTAGOND23*
4,1,8,0.33,-1.50,-0.33,-1.50,-0.65,-1.18,-0.65,1.18,-0.33,1.50,0.33,1.50,0.65,1.18,0.65,-1.18,0.33,-1.50,0.0*
%
%ADD23OCTAGOND23*%

D10*
X8900Y800D02*
D03*
Y5000D02*
D03*
X400D02*
D03*
Y800D02*
D03*
X4500Y3000D02*
D03*
D11*
X9300Y1200D02*
D03*
Y4600D02*
D03*
Y3500D02*
D03*
Y2500D02*
D03*
D12*
X8308Y3200D02*
D03*
X7292D02*
D03*
Y2500D02*
D03*
X8308D02*
D03*
X4854Y4300D02*
D03*
X4346D02*
D03*
X3000Y2146D02*
D03*
Y2654D02*
D03*
D13*
X5992Y3500D02*
D03*
X6500D02*
D03*
D14*
X550Y2900D02*
D03*
X1180Y2900D02*
D03*
X880Y2400D02*
D03*
D15*
X5750Y4601D02*
D03*
D16*
X6450Y4601D02*
D03*
D17*
X6757Y4872D02*
D03*
X5443D02*
D03*
D18*
X4500Y841D02*
D03*
D19*
X3181Y4200D02*
D03*
X2419D02*
D03*
D20*
X8873Y1600D02*
D03*
Y4200D02*
D03*
D21*
X9127Y1600D02*
D03*
Y4200D02*
D03*
D22*
X5844Y550D02*
D03*
D23*
X5489Y2200D02*
D03*
X5667D02*
D03*
X5844D02*
D03*
X6022D02*
D03*
X6200D02*
D03*
M02*
